<?xml version="1.0" encoding="UTF-8"?>
<svg xmlns="http://www.w3.org/2000/svg" width="1200" height="1000" viewBox="0 0 1200 1000" role="img" aria-labelledby="title description">
  <title id="title">Brindle Bay deterministic city debug map</title>
  <desc id="description">Top-down debug projection showing city bounds, waterfront, blocks, roads, sidewalks, crossings, public spaces, connected pedestrian nodes and edges, seven semantic anchors, and the household-to-Lantern-Tide signature route.</desc>
  <style>
    text { font-family: ui-monospace, SFMono-Regular, Menlo, monospace; fill: #182126; paint-order: stroke; stroke: #fff; stroke-width: 3px; stroke-linejoin: round; }
    .place { font-size: 14px; font-weight: 700; }
    .semantic { font-size: 10px; stroke-width: 2px; }
    .legend { font-size: 13px; stroke-width: 2px; }
  </style>
  <rect width="1200" height="1000" fill="#e7dfcf"/>
  <path d="M860 590 L1120 590 L1120 410 L860 410 Z" fill="#e9bb68" stroke="#334b4c" stroke-width="3"><title>public-space/lantern-tide-plaza</title></path><path d="M80 290 L340 290 L340 60 L80 60 Z" fill="#94ad74" stroke="#334b4c" stroke-width="3"><title>public-space/mariners-garden</title></path><path d="M460 840 L740 840 L740 710 L460 710 Z" fill="#a9c6ca" stroke="#334b4c" stroke-width="3"><title>public-space/transit-square</title></path><path d="M0 1000 L1200 1000 L1200 840 L0 840 Z" fill="#79a9c2" stroke="#334b4c" stroke-width="3"><title>public-space/waterfront</title></path>
  <path d="M800 880 L800 50" fill="none" stroke="#35404a" stroke-width="80" stroke-linecap="square"><title>Garden Road</title></path><path d="M60 650 L1140 650" fill="none" stroke="#35404a" stroke-width="80" stroke-linecap="square"><title>Harbor Street</title></path><path d="M60 350 L1140 350" fill="none" stroke="#35404a" stroke-width="80" stroke-linecap="square"><title>Market Way</title></path><path d="M400 880 L400 50" fill="none" stroke="#35404a" stroke-width="80" stroke-linecap="square"><title>Lantern Quay</title></path>
  <path d="M860 840 L860 90" fill="none" stroke="#f1eadb" stroke-width="4.5" stroke-linecap="round"><title>sidewalk/garden-east</title></path><path d="M740 840 L740 90" fill="none" stroke="#f1eadb" stroke-width="4.5" stroke-linecap="round"><title>sidewalk/garden-west</title></path><path d="M100 590 L1100 590" fill="none" stroke="#f1eadb" stroke-width="4.5" stroke-linecap="round"><title>sidewalk/harbor-north</title></path><path d="M100 710 L1100 710" fill="none" stroke="#f1eadb" stroke-width="4.5" stroke-linecap="round"><title>sidewalk/harbor-south</title></path><path d="M100 290 L1100 290" fill="none" stroke="#f1eadb" stroke-width="4.5" stroke-linecap="round"><title>sidewalk/market-north</title></path><path d="M100 410 L1100 410" fill="none" stroke="#f1eadb" stroke-width="4.5" stroke-linecap="round"><title>sidewalk/market-south</title></path><path d="M100 90 L1100 90" fill="none" stroke="#f1eadb" stroke-width="4.5" stroke-linecap="round"><title>sidewalk/north-promenade</title></path><path d="M460 840 L460 90" fill="none" stroke="#f1eadb" stroke-width="4.5" stroke-linecap="round"><title>sidewalk/quay-east</title></path><path d="M340 840 L340 90" fill="none" stroke="#f1eadb" stroke-width="4.5" stroke-linecap="round"><title>sidewalk/quay-west</title></path><path d="M100 840 L1100 840" fill="none" stroke="#f1eadb" stroke-width="4.5" stroke-linecap="round"><title>sidewalk/waterfront-promenade</title></path>
  <path d="M740 840 L860 840" fill="none" stroke="#fff6cf" stroke-width="6" stroke-dasharray="8 6"><title>crossing/garden-n016000</title></path><path d="M740 710 L860 710" fill="none" stroke="#fff6cf" stroke-width="6" stroke-dasharray="8 6"><title>crossing/garden-n029000</title></path><path d="M740 590 L860 590" fill="none" stroke="#fff6cf" stroke-width="6" stroke-dasharray="8 6"><title>crossing/garden-n041000</title></path><path d="M740 410 L860 410" fill="none" stroke="#fff6cf" stroke-width="6" stroke-dasharray="8 6"><title>crossing/garden-n059000</title></path><path d="M740 290 L860 290" fill="none" stroke="#fff6cf" stroke-width="6" stroke-dasharray="8 6"><title>crossing/garden-n071000</title></path><path d="M740 90 L860 90" fill="none" stroke="#fff6cf" stroke-width="6" stroke-dasharray="8 6"><title>crossing/garden-n091000</title></path><path d="M100 710 L100 590" fill="none" stroke="#fff6cf" stroke-width="6" stroke-dasharray="8 6"><title>crossing/harbor-e010000</title></path><path d="M340 710 L340 590" fill="none" stroke="#fff6cf" stroke-width="6" stroke-dasharray="8 6"><title>crossing/harbor-e034000</title></path><path d="M460 710 L460 590" fill="none" stroke="#fff6cf" stroke-width="6" stroke-dasharray="8 6"><title>crossing/harbor-e046000</title></path><path d="M740 710 L740 590" fill="none" stroke="#fff6cf" stroke-width="6" stroke-dasharray="8 6"><title>crossing/harbor-e074000</title></path><path d="M860 710 L860 590" fill="none" stroke="#fff6cf" stroke-width="6" stroke-dasharray="8 6"><title>crossing/harbor-e086000</title></path><path d="M1100 710 L1100 590" fill="none" stroke="#fff6cf" stroke-width="6" stroke-dasharray="8 6"><title>crossing/harbor-e110000</title></path><path d="M100 410 L100 290" fill="none" stroke="#fff6cf" stroke-width="6" stroke-dasharray="8 6"><title>crossing/market-e010000</title></path><path d="M340 410 L340 290" fill="none" stroke="#fff6cf" stroke-width="6" stroke-dasharray="8 6"><title>crossing/market-e034000</title></path><path d="M460 410 L460 290" fill="none" stroke="#fff6cf" stroke-width="6" stroke-dasharray="8 6"><title>crossing/market-e046000</title></path><path d="M740 410 L740 290" fill="none" stroke="#fff6cf" stroke-width="6" stroke-dasharray="8 6"><title>crossing/market-e074000</title></path><path d="M860 410 L860 290" fill="none" stroke="#fff6cf" stroke-width="6" stroke-dasharray="8 6"><title>crossing/market-e086000</title></path><path d="M1100 410 L1100 290" fill="none" stroke="#fff6cf" stroke-width="6" stroke-dasharray="8 6"><title>crossing/market-e110000</title></path><path d="M340 840 L460 840" fill="none" stroke="#fff6cf" stroke-width="6" stroke-dasharray="8 6"><title>crossing/quay-n016000</title></path><path d="M340 710 L460 710" fill="none" stroke="#fff6cf" stroke-width="6" stroke-dasharray="8 6"><title>crossing/quay-n029000</title></path><path d="M340 590 L460 590" fill="none" stroke="#fff6cf" stroke-width="6" stroke-dasharray="8 6"><title>crossing/quay-n041000</title></path><path d="M340 410 L460 410" fill="none" stroke="#fff6cf" stroke-width="6" stroke-dasharray="8 6"><title>crossing/quay-n059000</title></path><path d="M340 290 L460 290" fill="none" stroke="#fff6cf" stroke-width="6" stroke-dasharray="8 6"><title>crossing/quay-n071000</title></path><path d="M340 90 L460 90" fill="none" stroke="#fff6cf" stroke-width="6" stroke-dasharray="8 6"><title>crossing/quay-n091000</title></path>
  <path d="M880 270 L1080 270 L1080 110 L880 110 Z" fill="#c7b49b" stroke="#503f34" stroke-width="3"><title>building/academy</title></path><path d="M120 570 L200 570 L200 430 L120 430 Z" fill="#c7b49b" stroke="#503f34" stroke-width="3"><title>building/harbor-homes</title></path><path d="M480 570 L720 570 L720 430 L480 430 Z" fill="#c7b49b" stroke="#503f34" stroke-width="3"><title>building/market-hall</title></path><path d="M480 270 L720 270 L720 110 L480 110 Z" fill="#c7b49b" stroke="#503f34" stroke-width="3"><title>building/north-works</title></path><path d="M880 820 L1080 820 L1080 730 L880 730 Z" fill="#c7b49b" stroke="#503f34" stroke-width="3"><title>building/quay-atelier</title></path><path d="M220 570 L300 570 L300 430 L220 430 Z" fill="#c7b49b" stroke="#503f34" stroke-width="3"><title>building/service-house</title></path><path d="M120 820 L300 820 L300 730 L120 730 Z" fill="#c7b49b" stroke="#503f34" stroke-width="3"><title>building/waterfront-store</title></path>
  <path d="M100 840 L100 710" fill="none" stroke="#0c7c78" stroke-width="2" opacity="0.7"><title>ped-edge/e010000-n016000&gt;e010000-n029000</title></path><path d="M100 840 L340 840" fill="none" stroke="#0c7c78" stroke-width="2" opacity="0.7"><title>ped-edge/e010000-n016000&gt;e034000-n016000</title></path><path d="M100 710 L100 590" fill="none" stroke="#0c7c78" stroke-width="2" opacity="0.7"><title>ped-edge/e010000-n029000&gt;e010000-n041000</title></path><path d="M100 710 L340 710" fill="none" stroke="#0c7c78" stroke-width="2" opacity="0.7"><title>ped-edge/e010000-n029000&gt;e034000-n029000</title></path><path d="M100 590 L100 410" fill="none" stroke="#0c7c78" stroke-width="2" opacity="0.7"><title>ped-edge/e010000-n041000&gt;e010000-n059000</title></path><path d="M100 590 L340 590" fill="none" stroke="#0c7c78" stroke-width="2" opacity="0.7"><title>ped-edge/e010000-n041000&gt;e034000-n041000</title></path><path d="M100 410 L100 290" fill="none" stroke="#0c7c78" stroke-width="2" opacity="0.7"><title>ped-edge/e010000-n059000&gt;e010000-n071000</title></path><path d="M100 410 L340 410" fill="none" stroke="#0c7c78" stroke-width="2" opacity="0.7"><title>ped-edge/e010000-n059000&gt;e034000-n059000</title></path><path d="M100 290 L100 90" fill="none" stroke="#0c7c78" stroke-width="2" opacity="0.7"><title>ped-edge/e010000-n071000&gt;e010000-n091000</title></path><path d="M100 290 L340 290" fill="none" stroke="#0c7c78" stroke-width="2" opacity="0.7"><title>ped-edge/e010000-n071000&gt;e034000-n071000</title></path><path d="M100 90 L340 90" fill="none" stroke="#0c7c78" stroke-width="2" opacity="0.7"><title>ped-edge/e010000-n091000&gt;e034000-n091000</title></path><path d="M340 840 L340 710" fill="none" stroke="#0c7c78" stroke-width="2" opacity="0.7"><title>ped-edge/e034000-n016000&gt;e034000-n029000</title></path><path d="M340 840 L460 840" fill="none" stroke="#0c7c78" stroke-width="2" opacity="0.7"><title>ped-edge/e034000-n016000&gt;e046000-n016000</title></path><path d="M340 710 L340 590" fill="none" stroke="#0c7c78" stroke-width="2" opacity="0.7"><title>ped-edge/e034000-n029000&gt;e034000-n041000</title></path><path d="M340 710 L460 710" fill="none" stroke="#0c7c78" stroke-width="2" opacity="0.7"><title>ped-edge/e034000-n029000&gt;e046000-n029000</title></path><path d="M340 590 L340 410" fill="none" stroke="#0c7c78" stroke-width="2" opacity="0.7"><title>ped-edge/e034000-n041000&gt;e034000-n059000</title></path><path d="M340 590 L460 590" fill="none" stroke="#0c7c78" stroke-width="2" opacity="0.7"><title>ped-edge/e034000-n041000&gt;e046000-n041000</title></path><path d="M340 410 L340 290" fill="none" stroke="#0c7c78" stroke-width="2" opacity="0.7"><title>ped-edge/e034000-n059000&gt;e034000-n071000</title></path><path d="M340 410 L460 410" fill="none" stroke="#0c7c78" stroke-width="2" opacity="0.7"><title>ped-edge/e034000-n059000&gt;e046000-n059000</title></path><path d="M340 290 L340 90" fill="none" stroke="#0c7c78" stroke-width="2" opacity="0.7"><title>ped-edge/e034000-n071000&gt;e034000-n091000</title></path><path d="M340 290 L460 290" fill="none" stroke="#0c7c78" stroke-width="2" opacity="0.7"><title>ped-edge/e034000-n071000&gt;e046000-n071000</title></path><path d="M340 90 L460 90" fill="none" stroke="#0c7c78" stroke-width="2" opacity="0.7"><title>ped-edge/e034000-n091000&gt;e046000-n091000</title></path><path d="M460 840 L460 710" fill="none" stroke="#0c7c78" stroke-width="2" opacity="0.7"><title>ped-edge/e046000-n016000&gt;e046000-n029000</title></path><path d="M460 840 L740 840" fill="none" stroke="#0c7c78" stroke-width="2" opacity="0.7"><title>ped-edge/e046000-n016000&gt;e074000-n016000</title></path><path d="M460 710 L460 590" fill="none" stroke="#0c7c78" stroke-width="2" opacity="0.7"><title>ped-edge/e046000-n029000&gt;e046000-n041000</title></path><path d="M460 710 L740 710" fill="none" stroke="#0c7c78" stroke-width="2" opacity="0.7"><title>ped-edge/e046000-n029000&gt;e074000-n029000</title></path><path d="M460 590 L460 410" fill="none" stroke="#0c7c78" stroke-width="2" opacity="0.7"><title>ped-edge/e046000-n041000&gt;e046000-n059000</title></path><path d="M460 590 L740 590" fill="none" stroke="#0c7c78" stroke-width="2" opacity="0.7"><title>ped-edge/e046000-n041000&gt;e074000-n041000</title></path><path d="M460 410 L460 290" fill="none" stroke="#0c7c78" stroke-width="2" opacity="0.7"><title>ped-edge/e046000-n059000&gt;e046000-n071000</title></path><path d="M460 410 L740 410" fill="none" stroke="#0c7c78" stroke-width="2" opacity="0.7"><title>ped-edge/e046000-n059000&gt;e074000-n059000</title></path><path d="M460 290 L460 90" fill="none" stroke="#0c7c78" stroke-width="2" opacity="0.7"><title>ped-edge/e046000-n071000&gt;e046000-n091000</title></path><path d="M460 290 L740 290" fill="none" stroke="#0c7c78" stroke-width="2" opacity="0.7"><title>ped-edge/e046000-n071000&gt;e074000-n071000</title></path><path d="M460 90 L740 90" fill="none" stroke="#0c7c78" stroke-width="2" opacity="0.7"><title>ped-edge/e046000-n091000&gt;e074000-n091000</title></path><path d="M740 840 L740 710" fill="none" stroke="#0c7c78" stroke-width="2" opacity="0.7"><title>ped-edge/e074000-n016000&gt;e074000-n029000</title></path><path d="M740 840 L860 840" fill="none" stroke="#0c7c78" stroke-width="2" opacity="0.7"><title>ped-edge/e074000-n016000&gt;e086000-n016000</title></path><path d="M740 710 L740 590" fill="none" stroke="#0c7c78" stroke-width="2" opacity="0.7"><title>ped-edge/e074000-n029000&gt;e074000-n041000</title></path><path d="M740 710 L860 710" fill="none" stroke="#0c7c78" stroke-width="2" opacity="0.7"><title>ped-edge/e074000-n029000&gt;e086000-n029000</title></path><path d="M740 590 L740 410" fill="none" stroke="#0c7c78" stroke-width="2" opacity="0.7"><title>ped-edge/e074000-n041000&gt;e074000-n059000</title></path><path d="M740 590 L860 590" fill="none" stroke="#0c7c78" stroke-width="2" opacity="0.7"><title>ped-edge/e074000-n041000&gt;e086000-n041000</title></path><path d="M740 410 L740 290" fill="none" stroke="#0c7c78" stroke-width="2" opacity="0.7"><title>ped-edge/e074000-n059000&gt;e074000-n071000</title></path><path d="M740 410 L860 410" fill="none" stroke="#0c7c78" stroke-width="2" opacity="0.7"><title>ped-edge/e074000-n059000&gt;e086000-n059000</title></path><path d="M740 290 L740 90" fill="none" stroke="#0c7c78" stroke-width="2" opacity="0.7"><title>ped-edge/e074000-n071000&gt;e074000-n091000</title></path><path d="M740 290 L860 290" fill="none" stroke="#0c7c78" stroke-width="2" opacity="0.7"><title>ped-edge/e074000-n071000&gt;e086000-n071000</title></path><path d="M740 90 L860 90" fill="none" stroke="#0c7c78" stroke-width="2" opacity="0.7"><title>ped-edge/e074000-n091000&gt;e086000-n091000</title></path><path d="M860 840 L860 710" fill="none" stroke="#0c7c78" stroke-width="2" opacity="0.7"><title>ped-edge/e086000-n016000&gt;e086000-n029000</title></path><path d="M860 840 L1100 840" fill="none" stroke="#0c7c78" stroke-width="2" opacity="0.7"><title>ped-edge/e086000-n016000&gt;e110000-n016000</title></path><path d="M860 710 L860 590" fill="none" stroke="#0c7c78" stroke-width="2" opacity="0.7"><title>ped-edge/e086000-n029000&gt;e086000-n041000</title></path><path d="M860 710 L1100 710" fill="none" stroke="#0c7c78" stroke-width="2" opacity="0.7"><title>ped-edge/e086000-n029000&gt;e110000-n029000</title></path><path d="M860 590 L860 410" fill="none" stroke="#0c7c78" stroke-width="2" opacity="0.7"><title>ped-edge/e086000-n041000&gt;e086000-n059000</title></path><path d="M860 590 L1100 590" fill="none" stroke="#0c7c78" stroke-width="2" opacity="0.7"><title>ped-edge/e086000-n041000&gt;e110000-n041000</title></path><path d="M860 410 L860 290" fill="none" stroke="#0c7c78" stroke-width="2" opacity="0.7"><title>ped-edge/e086000-n059000&gt;e086000-n071000</title></path><path d="M860 410 L1100 410" fill="none" stroke="#0c7c78" stroke-width="2" opacity="0.7"><title>ped-edge/e086000-n059000&gt;e110000-n059000</title></path><path d="M860 290 L860 90" fill="none" stroke="#0c7c78" stroke-width="2" opacity="0.7"><title>ped-edge/e086000-n071000&gt;e086000-n091000</title></path><path d="M860 290 L1100 290" fill="none" stroke="#0c7c78" stroke-width="2" opacity="0.7"><title>ped-edge/e086000-n071000&gt;e110000-n071000</title></path><path d="M860 90 L1100 90" fill="none" stroke="#0c7c78" stroke-width="2" opacity="0.7"><title>ped-edge/e086000-n091000&gt;e110000-n091000</title></path><path d="M1100 840 L1100 710" fill="none" stroke="#0c7c78" stroke-width="2" opacity="0.7"><title>ped-edge/e110000-n016000&gt;e110000-n029000</title></path><path d="M1100 710 L1100 590" fill="none" stroke="#0c7c78" stroke-width="2" opacity="0.7"><title>ped-edge/e110000-n029000&gt;e110000-n041000</title></path><path d="M1100 590 L1100 410" fill="none" stroke="#0c7c78" stroke-width="2" opacity="0.7"><title>ped-edge/e110000-n041000&gt;e110000-n059000</title></path><path d="M1100 410 L1100 290" fill="none" stroke="#0c7c78" stroke-width="2" opacity="0.7"><title>ped-edge/e110000-n059000&gt;e110000-n071000</title></path><path d="M1100 290 L1100 90" fill="none" stroke="#0c7c78" stroke-width="2" opacity="0.7"><title>ped-edge/e110000-n071000&gt;e110000-n091000</title></path>
  <path d="M340 590 L340 410" fill="none" stroke="#f15a24" stroke-width="6" stroke-linecap="round"/><path d="M340 410 L460 410" fill="none" stroke="#f15a24" stroke-width="6" stroke-linecap="round"/><path d="M460 410 L740 410" fill="none" stroke="#f15a24" stroke-width="6" stroke-linecap="round"/><path d="M740 410 L860 410" fill="none" stroke="#f15a24" stroke-width="6" stroke-linecap="round"/>
  <circle cx="100" cy="840" r="3" fill="#073b4c"><title>ped-node/e010000-n016000</title></circle><circle cx="100" cy="710" r="3" fill="#073b4c"><title>ped-node/e010000-n029000</title></circle><circle cx="100" cy="590" r="3" fill="#073b4c"><title>ped-node/e010000-n041000</title></circle><circle cx="100" cy="410" r="3" fill="#073b4c"><title>ped-node/e010000-n059000</title></circle><circle cx="100" cy="290" r="3" fill="#073b4c"><title>ped-node/e010000-n071000</title></circle><circle cx="100" cy="90" r="3" fill="#073b4c"><title>ped-node/e010000-n091000</title></circle><circle cx="340" cy="840" r="3" fill="#073b4c"><title>ped-node/e034000-n016000</title></circle><circle cx="340" cy="710" r="3" fill="#073b4c"><title>ped-node/e034000-n029000</title></circle><circle cx="340" cy="590" r="3" fill="#073b4c"><title>ped-node/e034000-n041000</title></circle><circle cx="340" cy="410" r="3" fill="#073b4c"><title>ped-node/e034000-n059000</title></circle><circle cx="340" cy="290" r="3" fill="#073b4c"><title>ped-node/e034000-n071000</title></circle><circle cx="340" cy="90" r="3" fill="#073b4c"><title>ped-node/e034000-n091000</title></circle><circle cx="460" cy="840" r="3" fill="#073b4c"><title>ped-node/e046000-n016000</title></circle><circle cx="460" cy="710" r="3" fill="#073b4c"><title>ped-node/e046000-n029000</title></circle><circle cx="460" cy="590" r="3" fill="#073b4c"><title>ped-node/e046000-n041000</title></circle><circle cx="460" cy="410" r="3" fill="#073b4c"><title>ped-node/e046000-n059000</title></circle><circle cx="460" cy="290" r="3" fill="#073b4c"><title>ped-node/e046000-n071000</title></circle><circle cx="460" cy="90" r="3" fill="#073b4c"><title>ped-node/e046000-n091000</title></circle><circle cx="740" cy="840" r="3" fill="#073b4c"><title>ped-node/e074000-n016000</title></circle><circle cx="740" cy="710" r="3" fill="#073b4c"><title>ped-node/e074000-n029000</title></circle><circle cx="740" cy="590" r="3" fill="#073b4c"><title>ped-node/e074000-n041000</title></circle><circle cx="740" cy="410" r="3" fill="#073b4c"><title>ped-node/e074000-n059000</title></circle><circle cx="740" cy="290" r="3" fill="#073b4c"><title>ped-node/e074000-n071000</title></circle><circle cx="740" cy="90" r="3" fill="#073b4c"><title>ped-node/e074000-n091000</title></circle><circle cx="860" cy="840" r="3" fill="#073b4c"><title>ped-node/e086000-n016000</title></circle><circle cx="860" cy="710" r="3" fill="#073b4c"><title>ped-node/e086000-n029000</title></circle><circle cx="860" cy="590" r="3" fill="#073b4c"><title>ped-node/e086000-n041000</title></circle><circle cx="860" cy="410" r="3" fill="#073b4c"><title>ped-node/e086000-n059000</title></circle><circle cx="860" cy="290" r="3" fill="#073b4c"><title>ped-node/e086000-n071000</title></circle><circle cx="860" cy="90" r="3" fill="#073b4c"><title>ped-node/e086000-n091000</title></circle><circle cx="1100" cy="840" r="3" fill="#073b4c"><title>ped-node/e110000-n016000</title></circle><circle cx="1100" cy="710" r="3" fill="#073b4c"><title>ped-node/e110000-n029000</title></circle><circle cx="1100" cy="590" r="3" fill="#073b4c"><title>ped-node/e110000-n041000</title></circle><circle cx="1100" cy="410" r="3" fill="#073b4c"><title>ped-node/e110000-n059000</title></circle><circle cx="1100" cy="290" r="3" fill="#073b4c"><title>ped-node/e110000-n071000</title></circle><circle cx="1100" cy="90" r="3" fill="#073b4c"><title>ped-node/e110000-n091000</title></circle>
  <g><title>anchor-settlement-00</title><circle cx="460" cy="710" r="8" fill="#fff" stroke="#b23722" stroke-width="4"/><text x="470" y="698" text-anchor="start" class="place">Brindle Bay Transit</text><text x="470" y="712" text-anchor="start" class="semantic">transport · anchor-settlement-00</text></g><g><title>community/L5/0/38</title><circle cx="460" cy="410" r="8" fill="#fff" stroke="#b23722" stroke-width="4"/><text x="470" y="398" text-anchor="start" class="place">Market Hall Commons</text><text x="470" y="412" text-anchor="start" class="semantic">community · community/L5/0/38</text></g><g><title>festival/lantern-confluence</title><circle cx="860" cy="410" r="8" fill="#fff" stroke="#b23722" stroke-width="4"/><text x="870" y="398" text-anchor="start" class="place">Lantern Tide Plaza</text><text x="870" y="412" text-anchor="start" class="semantic">festival · festival/lantern-confluence</text></g><g><title>household_0yojqkh51f1hk_0b9jrcl</title><circle cx="340" cy="590" r="8" fill="#fff" stroke="#b23722" stroke-width="4"/><text x="350" y="578" text-anchor="start" class="place">Harbor Row Homes</text><text x="350" y="592" text-anchor="start" class="semantic">household · household_0yojqkh51f1hk_0b9jrcl</text></g><g><title>place_sch_2v4lghskcaryh_0rhzadh</title><circle cx="860" cy="290" r="8" fill="#fff" stroke="#b23722" stroke-width="4"/><text x="870" y="278" text-anchor="start" class="place">Yarrow Learning House</text><text x="870" y="292" text-anchor="start" class="semantic">school · place_sch_2v4lghskcaryh_0rhzadh</text></g><g><title>place_svc_0u99a3yc1d8bf_0j1ywjx</title><circle cx="340" cy="410" r="8" fill="#fff" stroke="#b23722" stroke-width="4"/><text x="330" y="380" text-anchor="end" class="place">Briar Circle</text><text x="330" y="394" text-anchor="end" class="semantic">service · place_svc_0u99a3yc1d8bf_0j1ywjx</text></g><g><title>place_wrk_0vq6m09loyw26_0eqbbr9</title><circle cx="740" cy="290" r="8" fill="#fff" stroke="#b23722" stroke-width="4"/><text x="730" y="260" text-anchor="end" class="place">Reed Works</text><text x="730" y="274" text-anchor="end" class="semantic">workplace · place_wrk_0vq6m09loyw26_0eqbbr9</text></g>
  <g transform="translate(18 24)"><rect width="390" height="72" rx="7" fill="#fff" opacity="0.92"/><text x="12" y="22" class="place">Brindle Bay · schema 1 · centimeters</text><text x="12" y="42" class="legend">orange: signature route · teal: pedestrian topology</text><text x="12" y="61" class="legend">cityHash bc0c9ac7fa5ed058</text></g>
</svg>
